<svg id="Capa_1" data-name="Capa 1" xmlns="http://www.w3.org/2000/svg" viewBox="0 0 2521.23 884.3"><defs><style>.cls-1{opacity:0.45;}.cls-2{fill:none;stroke:#000;stroke-miterlimit:10;stroke-width:2px;}.cls-3{font-size:120px;font-family:Raleway-Regular, Raleway;}.cls-10,.cls-4,.cls-7{font-family:Raleway-Bold, Raleway;font-weight:700;}.cls-5{letter-spacing:-0.01em;}.cls-6{letter-spacing:-0.03em;}.cls-7{letter-spacing:-0.01em;}.cls-8{letter-spacing:-0.02em;}.cls-9{letter-spacing:0em;}.cls-10{letter-spacing:-0.03em;}</style></defs><title>people</title><path d="M175,235.19c38.91,0,70.46-38.32,70.46-85.59S235.1,64,175,64s-70.46,38.32-70.46,85.59S136.08,235.19,175,235.19Z" transform="translate(-40.83 13.19)"/><path d="M41.91,365.87c0-2.88,0-.81,0,0Z" transform="translate(-40.83 13.19)"/><path d="M308.08,368.12c0-.79,0-5.48,0,0Z" transform="translate(-40.83 13.19)"/><path d="M307.93,362.41c-1.3-82.34-12.05-105.8-94.35-120.66,0,0-11.58,14.77-38.58,14.77s-38.59-14.77-38.59-14.77c-81.39,14.69-92.8,37.81-94.3,118-.12,6.54-.18,6.89-.2,6.13,0,1.42,0,4.06,0,8.65,0,0,19.59,39.49,133.08,39.49s133.08-39.49,133.08-39.49v-6.4C308.06,368.59,308,367.68,307.93,362.41Z" transform="translate(-40.83 13.19)"/><g class="cls-1"><path d="M173.94,692.28c38.91,0,70.46-38.32,70.46-85.59S234,521.11,173.94,521.11s-70.47,38.31-70.47,85.58S135,692.28,173.94,692.28Z" transform="translate(-40.83 13.19)"/><path d="M40.85,823c0-2.88,0-.81,0,0Z" transform="translate(-40.83 13.19)"/><path d="M307,825.21c0-.79,0-5.47,0,0Z" transform="translate(-40.83 13.19)"/><path d="M306.87,819.5c-1.3-82.34-12.06-105.8-94.35-120.65,0,0-11.58,14.76-38.58,14.76s-38.59-14.76-38.59-14.76c-81.39,14.69-92.8,37.8-94.3,118-.13,6.54-.18,6.89-.2,6.13,0,1.42,0,4.06,0,8.65,0,0,19.59,39.5,133.08,39.5S307,831.61,307,831.61v-6.4C307,825.68,307,824.77,306.87,819.5Z" transform="translate(-40.83 13.19)"/></g><path class="cls-2" d="M1183.52,51.59c-137,1.38-277.68-6.9-414.22,4.18-52.92,4.29-98.83,20-131.19,65.11-30.12,42-12,37.39-59.28,46.35C506.8,180.87,428.25,178.52,355,184c80.86,29.41,194.62,48,265,96.35,55.8,38.36,68.23,81.54,147.71,87.46,40.43,3,82.52-.83,123-1.24,96.54-1,196,5,292.26-2.95C1380.77,347.31,1388.76,51.59,1183.52,51.59Z" transform="translate(-40.83 13.19)"/><text class="cls-3" transform="translate(664.04 246.31)">I <tspan class="cls-4" x="60.36" y="0">can</tspan><tspan x="269.39" y="0" xml:space="preserve"> st</tspan><tspan class="cls-5" x="398.63" y="0">a</tspan><tspan class="cls-6" x="462.47" y="0">y</tspan></text><text class="cls-3" transform="translate(664.04 632.31)">I <tspan class="cls-4" x="60.36" y="0">ca</tspan><tspan class="cls-7" x="196.92" y="0">n</tspan><tspan class="cls-4" x="268.08" y="0">’t</tspan><tspan x="342.59" y="0" xml:space="preserve"> st</tspan><tspan class="cls-5" x="471.83" y="0">a</tspan><tspan class="cls-6" x="535.67" y="0">y</tspan><tspan x="0" y="144">o</tspan><tspan class="cls-8" x="71.4" y="144">r</tspan><tspan class="cls-9" x="110.64" y="144" xml:space="preserve"> I’m </tspan><tspan class="cls-4" x="334.67" y="144">unsu</tspan><tspan class="cls-10" x="615.11" y="144">r</tspan><tspan class="cls-4" x="658.43" y="144">e</tspan></text><path class="cls-2" d="M1355.94,472.61l-521.68,3.87c-23.68.17-49.71-1.93-73.13,2.44-36.63,6.82-69.39,25.2-93.41,53.73-13.92,16.52-20.9,44-36.36,53.29-29.39,17.63-108.43,8.13-142.51,10.69l-112,8.4C469,638.56,603,659.71,664.64,733.14c44.84,53.44,75.12,85.61,145.9,87.55,57.43,1.56,115.27-.86,172.72-1.29,119.11-.88,243,8.12,361.62-2.68C1540.67,798.9,1576.59,472.61,1355.94,472.61Z" transform="translate(-40.83 13.19)"/><text x="-40.83" y="13.19"></text><text x="-40.83" y="13.19"></text></svg>